<svg width="638" height="199" viewBox="0 0 638 199" fill="none" xmlns="http://www.w3.org/2000/svg">
<g filter="url(#filter0_d_431_528)">
<rect x="17" y="17" width="590" height="151" rx="5" fill="white"/>
<rect x="17.1" y="17.1" width="589.8" height="150.8" rx="4.9" stroke="#D7D7D7" stroke-width="0.2"/>
</g>
<path d="M81.704 73.418L78.14 86H76.736L73.568 75.272L70.328 86L68.96 86.018L65.468 73.418H66.818L69.698 84.452L72.92 73.418H74.324L77.456 84.452L80.354 73.418H81.704ZM87.9334 86.144C87.0094 86.144 86.1754 85.94 85.4314 85.532C84.6994 85.112 84.1174 84.524 83.6854 83.768C83.2654 83 83.0554 82.106 83.0554 81.086C83.0554 80.066 83.2714 79.178 83.7034 78.422C84.1354 77.654 84.7234 77.066 85.4674 76.658C86.2114 76.238 87.0454 76.028 87.9694 76.028C88.8934 76.028 89.7274 76.238 90.4714 76.658C91.2274 77.066 91.8154 77.654 92.2354 78.422C92.6674 79.178 92.8834 80.066 92.8834 81.086C92.8834 82.094 92.6674 82.982 92.2354 83.75C91.8034 84.518 91.2094 85.112 90.4534 85.532C89.6974 85.94 88.8574 86.144 87.9334 86.144ZM87.9334 85.046C88.5814 85.046 89.1814 84.902 89.7334 84.614C90.2854 84.314 90.7294 83.87 91.0654 83.282C91.4134 82.682 91.5874 81.95 91.5874 81.086C91.5874 80.222 91.4194 79.496 91.0834 78.908C90.7474 78.308 90.3034 77.864 89.7514 77.576C89.1994 77.276 88.5994 77.126 87.9514 77.126C87.3034 77.126 86.7034 77.276 86.1514 77.576C85.5994 77.864 85.1554 78.308 84.8194 78.908C84.4954 79.496 84.3334 80.222 84.3334 81.086C84.3334 81.95 84.4954 82.682 84.8194 83.282C85.1554 83.87 85.5934 84.314 86.1334 84.614C86.6854 84.902 87.2854 85.046 87.9334 85.046ZM96.4402 77.918C96.7162 77.306 97.1362 76.832 97.7002 76.496C98.2762 76.16 98.9782 75.992 99.8062 75.992V77.306H99.4642C98.5522 77.306 97.8202 77.552 97.2682 78.044C96.7162 78.536 96.4402 79.358 96.4402 80.51V86H95.1802V76.172H96.4402V77.918ZM107.012 86L102.962 81.59V86H101.702V72.68H102.962V80.564L106.922 76.172H108.686L104.024 81.068L108.722 86H107.012ZM110.98 74.318C110.728 74.318 110.512 74.228 110.332 74.048C110.152 73.868 110.062 73.646 110.062 73.382C110.062 73.118 110.152 72.902 110.332 72.734C110.512 72.554 110.728 72.464 110.98 72.464C111.232 72.464 111.448 72.554 111.628 72.734C111.808 72.902 111.898 73.118 111.898 73.382C111.898 73.646 111.808 73.868 111.628 74.048C111.448 74.228 111.232 74.318 110.98 74.318ZM111.61 76.172V86H110.35V76.172H111.61ZM119.071 75.992C120.247 75.992 121.207 76.358 121.951 77.09C122.695 77.81 123.067 78.86 123.067 80.24V86H121.825V80.384C121.825 79.316 121.555 78.5 121.015 77.936C120.487 77.372 119.761 77.09 118.837 77.09C117.889 77.09 117.133 77.39 116.569 77.99C116.005 78.59 115.723 79.472 115.723 80.636V86H114.463V76.172H115.723V77.846C116.035 77.246 116.485 76.79 117.073 76.478C117.661 76.154 118.327 75.992 119.071 75.992ZM129.976 76.028C130.9 76.028 131.704 76.244 132.388 76.676C133.072 77.108 133.564 77.654 133.864 78.314V76.172H135.124V86.252C135.124 87.152 134.926 87.95 134.53 88.646C134.146 89.342 133.606 89.876 132.91 90.248C132.214 90.632 131.422 90.824 130.534 90.824C129.274 90.824 128.224 90.524 127.384 89.924C126.556 89.324 126.04 88.508 125.836 87.476H127.078C127.294 88.16 127.702 88.706 128.302 89.114C128.914 89.522 129.658 89.726 130.534 89.726C131.17 89.726 131.74 89.588 132.244 89.312C132.748 89.048 133.144 88.652 133.432 88.124C133.72 87.596 133.864 86.972 133.864 86.252V83.822C133.552 84.494 133.054 85.052 132.37 85.496C131.698 85.928 130.9 86.144 129.976 86.144C129.076 86.144 128.266 85.934 127.546 85.514C126.838 85.094 126.28 84.5 125.872 83.732C125.476 82.964 125.278 82.076 125.278 81.068C125.278 80.06 125.476 79.178 125.872 78.422C126.28 77.654 126.838 77.066 127.546 76.658C128.266 76.238 129.076 76.028 129.976 76.028ZM133.864 81.086C133.864 80.294 133.702 79.598 133.378 78.998C133.054 78.398 132.61 77.936 132.046 77.612C131.494 77.288 130.882 77.126 130.21 77.126C129.514 77.126 128.89 77.282 128.338 77.594C127.786 77.906 127.348 78.362 127.024 78.962C126.712 79.55 126.556 80.252 126.556 81.068C126.556 81.872 126.712 82.58 127.024 83.192C127.348 83.792 127.786 84.254 128.338 84.578C128.89 84.89 129.514 85.046 130.21 85.046C130.882 85.046 131.494 84.884 132.046 84.56C132.61 84.236 133.054 83.774 133.378 83.174C133.702 82.574 133.864 81.878 133.864 81.086ZM147.242 86.144C146.318 86.144 145.484 85.94 144.74 85.532C144.008 85.112 143.426 84.524 142.994 83.768C142.574 83 142.364 82.106 142.364 81.086C142.364 80.066 142.58 79.178 143.012 78.422C143.444 77.654 144.032 77.066 144.776 76.658C145.52 76.238 146.354 76.028 147.278 76.028C148.202 76.028 149.036 76.238 149.78 76.658C150.536 77.066 151.124 77.654 151.544 78.422C151.976 79.178 152.192 80.066 152.192 81.086C152.192 82.094 151.976 82.982 151.544 83.75C151.112 84.518 150.518 85.112 149.762 85.532C149.006 85.94 148.166 86.144 147.242 86.144ZM147.242 85.046C147.89 85.046 148.49 84.902 149.042 84.614C149.594 84.314 150.038 83.87 150.374 83.282C150.722 82.682 150.896 81.95 150.896 81.086C150.896 80.222 150.728 79.496 150.392 78.908C150.056 78.308 149.612 77.864 149.06 77.576C148.508 77.276 147.908 77.126 147.26 77.126C146.612 77.126 146.012 77.276 145.46 77.576C144.908 77.864 144.464 78.308 144.128 78.908C143.804 79.496 143.642 80.222 143.642 81.086C143.642 81.95 143.804 82.682 144.128 83.282C144.464 83.87 144.902 84.314 145.442 84.614C145.994 84.902 146.594 85.046 147.242 85.046ZM159.097 75.992C160.273 75.992 161.233 76.358 161.977 77.09C162.721 77.81 163.093 78.86 163.093 80.24V86H161.851V80.384C161.851 79.316 161.581 78.5 161.041 77.936C160.513 77.372 159.787 77.09 158.863 77.09C157.915 77.09 157.159 77.39 156.595 77.99C156.031 78.59 155.749 79.472 155.749 80.636V86H154.489V76.172H155.749V77.846C156.061 77.246 156.511 76.79 157.099 76.478C157.687 76.154 158.353 75.992 159.097 75.992ZM182.519 75.992C183.671 75.992 184.607 76.358 185.327 77.09C186.059 77.81 186.425 78.86 186.425 80.24V86H185.183V80.384C185.183 79.316 184.925 78.5 184.409 77.936C183.893 77.372 183.191 77.09 182.303 77.09C181.379 77.09 180.641 77.396 180.089 78.008C179.537 78.62 179.261 79.508 179.261 80.672V86H178.019V80.384C178.019 79.316 177.761 78.5 177.245 77.936C176.729 77.372 176.021 77.09 175.121 77.09C174.197 77.09 173.459 77.396 172.907 78.008C172.355 78.62 172.079 79.508 172.079 80.672V86H170.819V76.172H172.079V77.864C172.391 77.252 172.835 76.79 173.411 76.478C173.987 76.154 174.629 75.992 175.337 75.992C176.189 75.992 176.933 76.196 177.569 76.604C178.217 77.012 178.685 77.612 178.973 78.404C179.237 77.624 179.687 77.03 180.323 76.622C180.971 76.202 181.703 75.992 182.519 75.992ZM197.323 76.172L191.491 90.626H190.177L192.085 85.946L188.053 76.172H189.439L192.787 84.56L196.027 76.172H197.323ZM203.395 81.068C203.395 80.06 203.599 79.178 204.007 78.422C204.415 77.654 204.973 77.066 205.681 76.658C206.401 76.238 207.211 76.028 208.111 76.028C208.975 76.028 209.755 76.238 210.451 76.658C211.147 77.078 211.657 77.624 211.981 78.296V72.68H213.241V86H211.981V83.804C211.681 84.488 211.189 85.052 210.505 85.496C209.821 85.928 209.017 86.144 208.093 86.144C207.193 86.144 206.383 85.934 205.663 85.514C204.955 85.094 204.397 84.5 203.989 83.732C203.593 82.964 203.395 82.076 203.395 81.068ZM211.981 81.086C211.981 80.294 211.819 79.598 211.495 78.998C211.171 78.398 210.727 77.936 210.163 77.612C209.611 77.288 208.999 77.126 208.327 77.126C207.631 77.126 207.007 77.282 206.455 77.594C205.903 77.906 205.465 78.362 205.141 78.962C204.829 79.55 204.673 80.252 204.673 81.068C204.673 81.872 204.829 82.58 205.141 83.192C205.465 83.792 205.903 84.254 206.455 84.578C207.007 84.89 207.631 85.046 208.327 85.046C208.999 85.046 209.611 84.884 210.163 84.56C210.727 84.236 211.171 83.774 211.495 83.174C211.819 82.574 211.981 81.878 211.981 81.086ZM217.378 77.918C217.654 77.306 218.074 76.832 218.638 76.496C219.214 76.16 219.916 75.992 220.744 75.992V77.306H220.402C219.49 77.306 218.758 77.552 218.206 78.044C217.654 78.536 217.378 79.358 217.378 80.51V86H216.118V76.172H217.378V77.918ZM231.531 80.582C231.531 81.014 231.519 81.344 231.495 81.572H223.341C223.377 82.316 223.557 82.952 223.881 83.48C224.205 84.008 224.631 84.41 225.159 84.686C225.687 84.95 226.263 85.082 226.887 85.082C227.703 85.082 228.387 84.884 228.939 84.488C229.503 84.092 229.875 83.558 230.055 82.886H231.387C231.147 83.846 230.631 84.632 229.839 85.244C229.059 85.844 228.075 86.144 226.887 86.144C225.963 86.144 225.135 85.94 224.403 85.532C223.671 85.112 223.095 84.524 222.675 83.768C222.267 83 222.063 82.106 222.063 81.086C222.063 80.066 222.267 79.172 222.675 78.404C223.083 77.636 223.653 77.048 224.385 76.64C225.117 76.232 225.951 76.028 226.887 76.028C227.823 76.028 228.639 76.232 229.335 76.64C230.043 77.048 230.583 77.6 230.955 78.296C231.339 78.98 231.531 79.742 231.531 80.582ZM230.253 80.546C230.265 79.814 230.115 79.19 229.803 78.674C229.503 78.158 229.089 77.768 228.561 77.504C228.033 77.24 227.457 77.108 226.833 77.108C225.897 77.108 225.099 77.408 224.439 78.008C223.779 78.608 223.413 79.454 223.341 80.546H230.253ZM233.26 81.068C233.26 80.06 233.458 79.178 233.854 78.422C234.262 77.654 234.82 77.066 235.528 76.658C236.248 76.238 237.058 76.028 237.958 76.028C238.894 76.028 239.698 76.244 240.37 76.676C241.054 77.108 241.546 77.66 241.846 78.332V76.172H243.106V86H241.846V83.822C241.534 84.494 241.036 85.052 240.352 85.496C239.68 85.928 238.876 86.144 237.94 86.144C237.052 86.144 236.248 85.934 235.528 85.514C234.82 85.094 234.262 84.5 233.854 83.732C233.458 82.964 233.26 82.076 233.26 81.068ZM241.846 81.086C241.846 80.294 241.684 79.598 241.36 78.998C241.036 78.398 240.592 77.936 240.028 77.612C239.476 77.288 238.864 77.126 238.192 77.126C237.496 77.126 236.872 77.282 236.32 77.594C235.768 77.906 235.33 78.362 235.006 78.962C234.694 79.55 234.538 80.252 234.538 81.068C234.538 81.872 234.694 82.58 235.006 83.192C235.33 83.792 235.768 84.254 236.32 84.578C236.872 84.89 237.496 85.046 238.192 85.046C238.864 85.046 239.476 84.884 240.028 84.56C240.592 84.236 241.036 83.774 241.36 83.174C241.684 82.574 241.846 81.878 241.846 81.086ZM257.683 75.992C258.835 75.992 259.771 76.358 260.491 77.09C261.223 77.81 261.589 78.86 261.589 80.24V86H260.347V80.384C260.347 79.316 260.089 78.5 259.573 77.936C259.057 77.372 258.355 77.09 257.467 77.09C256.543 77.09 255.805 77.396 255.253 78.008C254.701 78.62 254.425 79.508 254.425 80.672V86H253.183V80.384C253.183 79.316 252.925 78.5 252.409 77.936C251.893 77.372 251.185 77.09 250.285 77.09C249.361 77.09 248.623 77.396 248.071 78.008C247.519 78.62 247.243 79.508 247.243 80.672V86H245.983V76.172H247.243V77.864C247.555 77.252 247.999 76.79 248.575 76.478C249.151 76.154 249.793 75.992 250.501 75.992C251.353 75.992 252.097 76.196 252.733 76.604C253.381 77.012 253.849 77.612 254.137 78.404C254.401 77.624 254.851 77.03 255.487 76.622C256.135 76.202 256.867 75.992 257.683 75.992ZM270.569 78.332C270.881 77.672 271.373 77.126 272.045 76.694C272.729 76.25 273.539 76.028 274.475 76.028C275.363 76.028 276.161 76.238 276.869 76.658C277.589 77.066 278.147 77.654 278.543 78.422C278.951 79.178 279.155 80.06 279.155 81.068C279.155 82.076 278.951 82.964 278.543 83.732C278.147 84.5 277.589 85.094 276.869 85.514C276.161 85.934 275.363 86.144 274.475 86.144C273.551 86.144 272.747 85.928 272.063 85.496C271.379 85.052 270.881 84.5 270.569 83.84V90.644H269.327V76.172H270.569V78.332ZM277.877 81.068C277.877 80.252 277.715 79.55 277.391 78.962C277.079 78.362 276.647 77.906 276.095 77.594C275.543 77.282 274.919 77.126 274.223 77.126C273.551 77.126 272.933 77.288 272.369 77.612C271.817 77.936 271.379 78.398 271.055 78.998C270.731 79.598 270.569 80.294 270.569 81.086C270.569 81.878 270.731 82.574 271.055 83.174C271.379 83.774 271.817 84.236 272.369 84.56C272.933 84.884 273.551 85.046 274.223 85.046C274.919 85.046 275.543 84.89 276.095 84.578C276.647 84.254 277.079 83.792 277.391 83.192C277.715 82.58 277.877 81.872 277.877 81.068ZM285.775 86.144C284.851 86.144 284.017 85.94 283.273 85.532C282.541 85.112 281.959 84.524 281.527 83.768C281.107 83 280.897 82.106 280.897 81.086C280.897 80.066 281.113 79.178 281.545 78.422C281.977 77.654 282.565 77.066 283.309 76.658C284.053 76.238 284.887 76.028 285.811 76.028C286.735 76.028 287.569 76.238 288.313 76.658C289.069 77.066 289.657 77.654 290.077 78.422C290.509 79.178 290.725 80.066 290.725 81.086C290.725 82.094 290.509 82.982 290.077 83.75C289.645 84.518 289.051 85.112 288.295 85.532C287.539 85.94 286.699 86.144 285.775 86.144ZM285.775 85.046C286.423 85.046 287.023 84.902 287.575 84.614C288.127 84.314 288.571 83.87 288.907 83.282C289.255 82.682 289.429 81.95 289.429 81.086C289.429 80.222 289.261 79.496 288.925 78.908C288.589 78.308 288.145 77.864 287.593 77.576C287.041 77.276 286.441 77.126 285.793 77.126C285.145 77.126 284.545 77.276 283.993 77.576C283.441 77.864 282.997 78.308 282.661 78.908C282.337 79.496 282.175 80.222 282.175 81.086C282.175 81.95 282.337 82.682 282.661 83.282C282.997 83.87 283.435 84.314 283.975 84.614C284.527 84.902 285.127 85.046 285.775 85.046ZM294.282 77.918C294.558 77.306 294.978 76.832 295.542 76.496C296.118 76.16 296.82 75.992 297.648 75.992V77.306H297.306C296.394 77.306 295.662 77.552 295.11 78.044C294.558 78.536 294.282 79.358 294.282 80.51V86H293.022V76.172H294.282V77.918ZM301.182 77.234V83.336C301.182 83.936 301.296 84.35 301.524 84.578C301.752 84.806 302.154 84.92 302.73 84.92H303.882V86H302.532C301.644 86 300.984 85.796 300.552 85.388C300.12 84.968 299.904 84.284 299.904 83.336V77.234H298.536V76.172H299.904V73.706H301.182V76.172H303.882V77.234H301.182ZM309.83 77.234H307.544V86H306.284V77.234H304.916V76.172H306.284V75.488C306.284 74.42 306.554 73.634 307.094 73.13C307.646 72.626 308.534 72.374 309.758 72.374V73.454C308.942 73.454 308.366 73.61 308.03 73.922C307.706 74.234 307.544 74.756 307.544 75.488V76.172H309.83V77.234ZM316.115 86.144C315.191 86.144 314.357 85.94 313.613 85.532C312.881 85.112 312.299 84.524 311.867 83.768C311.447 83 311.237 82.106 311.237 81.086C311.237 80.066 311.453 79.178 311.885 78.422C312.317 77.654 312.905 77.066 313.649 76.658C314.393 76.238 315.227 76.028 316.151 76.028C317.075 76.028 317.909 76.238 318.653 76.658C319.409 77.066 319.997 77.654 320.417 78.422C320.849 79.178 321.065 80.066 321.065 81.086C321.065 82.094 320.849 82.982 320.417 83.75C319.985 84.518 319.391 85.112 318.635 85.532C317.879 85.94 317.039 86.144 316.115 86.144ZM316.115 85.046C316.763 85.046 317.363 84.902 317.915 84.614C318.467 84.314 318.911 83.87 319.247 83.282C319.595 82.682 319.769 81.95 319.769 81.086C319.769 80.222 319.601 79.496 319.265 78.908C318.929 78.308 318.485 77.864 317.933 77.576C317.381 77.276 316.781 77.126 316.133 77.126C315.485 77.126 314.885 77.276 314.333 77.576C313.781 77.864 313.337 78.308 313.001 78.908C312.677 79.496 312.515 80.222 312.515 81.086C312.515 81.95 312.677 82.682 313.001 83.282C313.337 83.87 313.775 84.314 314.315 84.614C314.867 84.902 315.467 85.046 316.115 85.046ZM324.622 72.68V86H323.362V72.68H324.622ZM328.105 74.318C327.853 74.318 327.637 74.228 327.457 74.048C327.277 73.868 327.187 73.646 327.187 73.382C327.187 73.118 327.277 72.902 327.457 72.734C327.637 72.554 327.853 72.464 328.105 72.464C328.357 72.464 328.573 72.554 328.753 72.734C328.933 72.902 329.023 73.118 329.023 73.382C329.023 73.646 328.933 73.868 328.753 74.048C328.573 74.228 328.357 74.318 328.105 74.318ZM328.735 76.172V86H327.475V76.172H328.735ZM335.89 86.144C334.966 86.144 334.132 85.94 333.388 85.532C332.656 85.112 332.074 84.524 331.642 83.768C331.222 83 331.012 82.106 331.012 81.086C331.012 80.066 331.228 79.178 331.66 78.422C332.092 77.654 332.68 77.066 333.424 76.658C334.168 76.238 335.002 76.028 335.926 76.028C336.85 76.028 337.684 76.238 338.428 76.658C339.184 77.066 339.772 77.654 340.192 78.422C340.624 79.178 340.84 80.066 340.84 81.086C340.84 82.094 340.624 82.982 340.192 83.75C339.76 84.518 339.166 85.112 338.41 85.532C337.654 85.94 336.814 86.144 335.89 86.144ZM335.89 85.046C336.538 85.046 337.138 84.902 337.69 84.614C338.242 84.314 338.686 83.87 339.022 83.282C339.37 82.682 339.544 81.95 339.544 81.086C339.544 80.222 339.376 79.496 339.04 78.908C338.704 78.308 338.26 77.864 337.708 77.576C337.156 77.276 336.556 77.126 335.908 77.126C335.26 77.126 334.66 77.276 334.108 77.576C333.556 77.864 333.112 78.308 332.776 78.908C332.452 79.496 332.29 80.222 332.29 81.086C332.29 81.95 332.452 82.682 332.776 83.282C333.112 83.87 333.55 84.314 334.09 84.614C334.642 84.902 335.242 85.046 335.89 85.046ZM344.829 73.418L344.667 82.67H343.605L343.461 73.418H344.829ZM344.199 86.09C343.935 86.09 343.713 86 343.533 85.82C343.365 85.64 343.281 85.418 343.281 85.154C343.281 84.89 343.365 84.674 343.533 84.506C343.713 84.326 343.935 84.236 344.199 84.236C344.451 84.236 344.661 84.326 344.829 84.506C345.009 84.674 345.099 84.89 345.099 85.154C345.099 85.418 345.009 85.64 344.829 85.82C344.661 86 344.451 86.09 344.199 86.09ZM360.431 73.418V74.462H356.939V86H355.679V74.462H352.169V73.418H360.431ZM367.1 75.992C367.844 75.992 368.51 76.148 369.098 76.46C369.698 76.772 370.166 77.252 370.502 77.9C370.85 78.536 371.024 79.316 371.024 80.24V86H369.782V80.384C369.782 79.316 369.512 78.5 368.972 77.936C368.444 77.372 367.718 77.09 366.794 77.09C365.846 77.09 365.09 77.39 364.526 77.99C363.962 78.59 363.68 79.472 363.68 80.636V86H362.42V72.68H363.68V77.846C363.992 77.258 364.448 76.802 365.048 76.478C365.66 76.154 366.344 75.992 367.1 75.992ZM373.235 81.068C373.235 80.06 373.433 79.178 373.829 78.422C374.237 77.654 374.795 77.066 375.503 76.658C376.223 76.238 377.033 76.028 377.933 76.028C378.869 76.028 379.673 76.244 380.345 76.676C381.029 77.108 381.521 77.66 381.821 78.332V76.172H383.081V86H381.821V83.822C381.509 84.494 381.011 85.052 380.327 85.496C379.655 85.928 378.851 86.144 377.915 86.144C377.027 86.144 376.223 85.934 375.503 85.514C374.795 85.094 374.237 84.5 373.829 83.732C373.433 82.964 373.235 82.076 373.235 81.068ZM381.821 81.086C381.821 80.294 381.659 79.598 381.335 78.998C381.011 78.398 380.567 77.936 380.003 77.612C379.451 77.288 378.839 77.126 378.167 77.126C377.471 77.126 376.847 77.282 376.295 77.594C375.743 77.906 375.305 78.362 374.981 78.962C374.669 79.55 374.513 80.252 374.513 81.068C374.513 81.872 374.669 82.58 374.981 83.192C375.305 83.792 375.743 84.254 376.295 84.578C376.847 84.89 377.471 85.046 378.167 85.046C378.839 85.046 379.451 84.884 380.003 84.56C380.567 84.236 381.011 83.774 381.335 83.174C381.659 82.574 381.821 81.878 381.821 81.086ZM390.566 75.992C391.742 75.992 392.702 76.358 393.446 77.09C394.19 77.81 394.562 78.86 394.562 80.24V86H393.32V80.384C393.32 79.316 393.05 78.5 392.51 77.936C391.982 77.372 391.256 77.09 390.332 77.09C389.384 77.09 388.628 77.39 388.064 77.99C387.5 78.59 387.218 79.472 387.218 80.636V86H385.958V76.172H387.218V77.846C387.53 77.246 387.98 76.79 388.568 76.478C389.156 76.154 389.822 75.992 390.566 75.992ZM402.658 86L398.608 81.59V86H397.348V72.68H398.608V80.564L402.568 76.172H404.332L399.67 81.068L404.368 86H402.658ZM409.381 86.144C408.253 86.144 407.329 85.886 406.609 85.37C405.901 84.842 405.505 84.128 405.421 83.228H406.717C406.777 83.78 407.035 84.23 407.491 84.578C407.959 84.914 408.583 85.082 409.363 85.082C410.047 85.082 410.581 84.92 410.965 84.596C411.361 84.272 411.559 83.87 411.559 83.39C411.559 83.054 411.451 82.778 411.235 82.562C411.019 82.346 410.743 82.178 410.407 82.058C410.083 81.926 409.639 81.788 409.075 81.644C408.343 81.452 407.749 81.26 407.293 81.068C406.837 80.876 406.447 80.594 406.123 80.222C405.811 79.838 405.655 79.328 405.655 78.692C405.655 78.212 405.799 77.768 406.087 77.36C406.375 76.952 406.783 76.628 407.311 76.388C407.839 76.148 408.439 76.028 409.111 76.028C410.167 76.028 411.019 76.298 411.667 76.838C412.315 77.366 412.663 78.098 412.711 79.034H411.451C411.415 78.458 411.187 77.996 410.767 77.648C410.359 77.288 409.795 77.108 409.075 77.108C408.439 77.108 407.923 77.258 407.527 77.558C407.131 77.858 406.933 78.23 406.933 78.674C406.933 79.058 407.047 79.376 407.275 79.628C407.515 79.868 407.809 80.06 408.157 80.204C408.505 80.336 408.973 80.486 409.561 80.654C410.269 80.846 410.833 81.032 411.253 81.212C411.673 81.392 412.033 81.656 412.333 82.004C412.633 82.352 412.789 82.814 412.801 83.39C412.801 83.918 412.657 84.392 412.369 84.812C412.081 85.22 411.679 85.544 411.163 85.784C410.647 86.024 410.053 86.144 409.381 86.144ZM423.982 77.234H421.696V86H420.436V77.234H419.068V76.172H420.436V75.488C420.436 74.42 420.706 73.634 421.246 73.13C421.798 72.626 422.686 72.374 423.91 72.374V73.454C423.094 73.454 422.518 73.61 422.182 73.922C421.858 74.234 421.696 74.756 421.696 75.488V76.172H423.982V77.234ZM430.267 86.144C429.343 86.144 428.509 85.94 427.765 85.532C427.033 85.112 426.451 84.524 426.019 83.768C425.599 83 425.389 82.106 425.389 81.086C425.389 80.066 425.605 79.178 426.037 78.422C426.469 77.654 427.057 77.066 427.801 76.658C428.545 76.238 429.379 76.028 430.303 76.028C431.227 76.028 432.061 76.238 432.805 76.658C433.561 77.066 434.149 77.654 434.569 78.422C435.001 79.178 435.217 80.066 435.217 81.086C435.217 82.094 435.001 82.982 434.569 83.75C434.137 84.518 433.543 85.112 432.787 85.532C432.031 85.94 431.191 86.144 430.267 86.144ZM430.267 85.046C430.915 85.046 431.515 84.902 432.067 84.614C432.619 84.314 433.063 83.87 433.399 83.282C433.747 82.682 433.921 81.95 433.921 81.086C433.921 80.222 433.753 79.496 433.417 78.908C433.081 78.308 432.637 77.864 432.085 77.576C431.533 77.276 430.933 77.126 430.285 77.126C429.637 77.126 429.037 77.276 428.485 77.576C427.933 77.864 427.489 78.308 427.153 78.908C426.829 79.496 426.667 80.222 426.667 81.086C426.667 81.95 426.829 82.682 427.153 83.282C427.489 83.87 427.927 84.314 428.467 84.614C429.019 84.902 429.619 85.046 430.267 85.046ZM438.774 77.918C439.05 77.306 439.47 76.832 440.034 76.496C440.61 76.16 441.312 75.992 442.14 75.992V77.306H441.798C440.886 77.306 440.154 77.552 439.602 78.044C439.05 78.536 438.774 79.358 438.774 80.51V86H437.514V76.172H438.774V77.918ZM457.075 76.172L451.243 90.626H449.929L451.837 85.946L447.805 76.172H449.191L452.539 84.56L455.779 76.172H457.075ZM463.086 86.144C462.162 86.144 461.328 85.94 460.584 85.532C459.852 85.112 459.27 84.524 458.838 83.768C458.418 83 458.208 82.106 458.208 81.086C458.208 80.066 458.424 79.178 458.856 78.422C459.288 77.654 459.876 77.066 460.62 76.658C461.364 76.238 462.198 76.028 463.122 76.028C464.046 76.028 464.88 76.238 465.624 76.658C466.38 77.066 466.968 77.654 467.388 78.422C467.82 79.178 468.036 80.066 468.036 81.086C468.036 82.094 467.82 82.982 467.388 83.75C466.956 84.518 466.362 85.112 465.606 85.532C464.85 85.94 464.01 86.144 463.086 86.144ZM463.086 85.046C463.734 85.046 464.334 84.902 464.886 84.614C465.438 84.314 465.882 83.87 466.218 83.282C466.566 82.682 466.74 81.95 466.74 81.086C466.74 80.222 466.572 79.496 466.236 78.908C465.9 78.308 465.456 77.864 464.904 77.576C464.352 77.276 463.752 77.126 463.104 77.126C462.456 77.126 461.856 77.276 461.304 77.576C460.752 77.864 460.308 78.308 459.972 78.908C459.648 79.496 459.486 80.222 459.486 81.086C459.486 81.95 459.648 82.682 459.972 83.282C460.308 83.87 460.746 84.314 461.286 84.614C461.838 84.902 462.438 85.046 463.086 85.046ZM478.847 76.172V86H477.587V84.272C477.299 84.884 476.855 85.352 476.255 85.676C475.655 86 474.983 86.162 474.239 86.162C473.063 86.162 472.103 85.802 471.359 85.082C470.615 84.35 470.243 83.294 470.243 81.914V76.172H471.485V81.77C471.485 82.838 471.749 83.654 472.277 84.218C472.817 84.782 473.549 85.064 474.473 85.064C475.421 85.064 476.177 84.764 476.741 84.164C477.305 83.564 477.587 82.682 477.587 81.518V76.172H478.847ZM482.983 77.918C483.259 77.306 483.679 76.832 484.243 76.496C484.819 76.16 485.521 75.992 486.349 75.992V77.306H486.007C485.095 77.306 484.363 77.552 483.811 78.044C483.259 78.536 482.983 79.358 482.983 80.51V86H481.723V76.172H482.983V77.918ZM67.682 105.332C67.994 104.672 68.486 104.126 69.158 103.694C69.842 103.25 70.652 103.028 71.588 103.028C72.476 103.028 73.274 103.238 73.982 103.658C74.702 104.066 75.26 104.654 75.656 105.422C76.064 106.178 76.268 107.06 76.268 108.068C76.268 109.076 76.064 109.964 75.656 110.732C75.26 111.5 74.702 112.094 73.982 112.514C73.274 112.934 72.476 113.144 71.588 113.144C70.664 113.144 69.86 112.928 69.176 112.496C68.492 112.052 67.994 111.5 67.682 110.84V117.644H66.44V103.172H67.682V105.332ZM74.99 108.068C74.99 107.252 74.828 106.55 74.504 105.962C74.192 105.362 73.76 104.906 73.208 104.594C72.656 104.282 72.032 104.126 71.336 104.126C70.664 104.126 70.046 104.288 69.482 104.612C68.93 104.936 68.492 105.398 68.168 105.998C67.844 106.598 67.682 107.294 67.682 108.086C67.682 108.878 67.844 109.574 68.168 110.174C68.492 110.774 68.93 111.236 69.482 111.56C70.046 111.884 70.664 112.046 71.336 112.046C72.032 112.046 72.656 111.89 73.208 111.578C73.76 111.254 74.192 110.792 74.504 110.192C74.828 109.58 74.99 108.872 74.99 108.068ZM78.0105 108.068C78.0105 107.06 78.2085 106.178 78.6045 105.422C79.0125 104.654 79.5705 104.066 80.2785 103.658C80.9985 103.238 81.8085 103.028 82.7085 103.028C83.6445 103.028 84.4485 103.244 85.1205 103.676C85.8045 104.108 86.2965 104.66 86.5965 105.332V103.172H87.8565V113H86.5965V110.822C86.2845 111.494 85.7865 112.052 85.1025 112.496C84.4305 112.928 83.6265 113.144 82.6905 113.144C81.8025 113.144 80.9985 112.934 80.2785 112.514C79.5705 112.094 79.0125 111.5 78.6045 110.732C78.2085 109.964 78.0105 109.076 78.0105 108.068ZM86.5965 108.086C86.5965 107.294 86.4345 106.598 86.1105 105.998C85.7865 105.398 85.3425 104.936 84.7785 104.612C84.2265 104.288 83.6145 104.126 82.9425 104.126C82.2465 104.126 81.6225 104.282 81.0705 104.594C80.5185 104.906 80.0805 105.362 79.7565 105.962C79.4445 106.55 79.2885 107.252 79.2885 108.068C79.2885 108.872 79.4445 109.58 79.7565 110.192C80.0805 110.792 80.5185 111.254 81.0705 111.578C81.6225 111.89 82.2465 112.046 82.9425 112.046C83.6145 112.046 84.2265 111.884 84.7785 111.56C85.3425 111.236 85.7865 110.774 86.1105 110.174C86.4345 109.574 86.5965 108.878 86.5965 108.086ZM92.371 104.234V110.336C92.371 110.936 92.485 111.35 92.713 111.578C92.941 111.806 93.343 111.92 93.919 111.92H95.071V113H93.721C92.833 113 92.173 112.796 91.741 112.388C91.309 111.968 91.093 111.284 91.093 110.336V104.234H89.725V103.172H91.093V100.706H92.371V103.172H95.071V104.234H92.371ZM97.779 101.318C97.527 101.318 97.311 101.228 97.131 101.048C96.951 100.868 96.861 100.646 96.861 100.382C96.861 100.118 96.951 99.902 97.131 99.734C97.311 99.554 97.527 99.464 97.779 99.464C98.031 99.464 98.247 99.554 98.427 99.734C98.607 99.902 98.697 100.118 98.697 100.382C98.697 100.646 98.607 100.868 98.427 101.048C98.247 101.228 98.031 101.318 97.779 101.318ZM98.409 103.172V113H97.149V103.172H98.409ZM110.154 107.582C110.154 108.014 110.142 108.344 110.118 108.572H101.964C102 109.316 102.18 109.952 102.504 110.48C102.828 111.008 103.254 111.41 103.782 111.686C104.31 111.95 104.886 112.082 105.51 112.082C106.326 112.082 107.01 111.884 107.562 111.488C108.126 111.092 108.498 110.558 108.678 109.886H110.01C109.77 110.846 109.254 111.632 108.462 112.244C107.682 112.844 106.698 113.144 105.51 113.144C104.586 113.144 103.758 112.94 103.026 112.532C102.294 112.112 101.718 111.524 101.298 110.768C100.89 110 100.686 109.106 100.686 108.086C100.686 107.066 100.89 106.172 101.298 105.404C101.706 104.636 102.276 104.048 103.008 103.64C103.74 103.232 104.574 103.028 105.51 103.028C106.446 103.028 107.262 103.232 107.958 103.64C108.666 104.048 109.206 104.6 109.578 105.296C109.962 105.98 110.154 106.742 110.154 107.582ZM108.876 107.546C108.888 106.814 108.738 106.19 108.426 105.674C108.126 105.158 107.712 104.768 107.184 104.504C106.656 104.24 106.08 104.108 105.456 104.108C104.52 104.108 103.722 104.408 103.062 105.008C102.402 105.608 102.036 106.454 101.964 107.546H108.876ZM117.068 102.992C118.244 102.992 119.204 103.358 119.948 104.09C120.692 104.81 121.064 105.86 121.064 107.24V113H119.822V107.384C119.822 106.316 119.552 105.5 119.012 104.936C118.484 104.372 117.758 104.09 116.834 104.09C115.886 104.09 115.13 104.39 114.566 104.99C114.002 105.59 113.72 106.472 113.72 107.636V113H112.46V103.172H113.72V104.846C114.032 104.246 114.482 103.79 115.07 103.478C115.658 103.154 116.324 102.992 117.068 102.992ZM123.274 108.086C123.274 107.066 123.478 106.178 123.886 105.422C124.294 104.654 124.858 104.066 125.578 103.658C126.298 103.238 127.12 103.028 128.044 103.028C129.256 103.028 130.252 103.328 131.032 103.928C131.824 104.528 132.334 105.344 132.562 106.376H131.212C131.044 105.668 130.678 105.116 130.114 104.72C129.562 104.312 128.872 104.108 128.044 104.108C127.384 104.108 126.79 104.258 126.262 104.558C125.734 104.858 125.314 105.308 125.002 105.908C124.702 106.496 124.552 107.222 124.552 108.086C124.552 108.95 124.702 109.682 125.002 110.282C125.314 110.882 125.734 111.332 126.262 111.632C126.79 111.932 127.384 112.082 128.044 112.082C128.872 112.082 129.562 111.884 130.114 111.488C130.678 111.08 131.044 110.516 131.212 109.796H132.562C132.334 110.804 131.824 111.614 131.032 112.226C130.24 112.838 129.244 113.144 128.044 113.144C127.12 113.144 126.298 112.94 125.578 112.532C124.858 112.112 124.294 111.524 123.886 110.768C123.478 110 123.274 109.106 123.274 108.086ZM143.781 107.582C143.781 108.014 143.769 108.344 143.745 108.572H135.591C135.627 109.316 135.807 109.952 136.131 110.48C136.455 111.008 136.881 111.41 137.409 111.686C137.937 111.95 138.513 112.082 139.137 112.082C139.953 112.082 140.637 111.884 141.189 111.488C141.753 111.092 142.125 110.558 142.305 109.886H143.637C143.397 110.846 142.881 111.632 142.089 112.244C141.309 112.844 140.325 113.144 139.137 113.144C138.213 113.144 137.385 112.94 136.653 112.532C135.921 112.112 135.345 111.524 134.925 110.768C134.517 110 134.313 109.106 134.313 108.086C134.313 107.066 134.517 106.172 134.925 105.404C135.333 104.636 135.903 104.048 136.635 103.64C137.367 103.232 138.201 103.028 139.137 103.028C140.073 103.028 140.889 103.232 141.585 103.64C142.293 104.048 142.833 104.6 143.205 105.296C143.589 105.98 143.781 106.742 143.781 107.582ZM142.503 107.546C142.515 106.814 142.365 106.19 142.053 105.674C141.753 105.158 141.339 104.768 140.811 104.504C140.283 104.24 139.707 104.108 139.083 104.108C138.147 104.108 137.349 104.408 136.689 105.008C136.029 105.608 135.663 106.454 135.591 107.546H142.503ZM150.45 108.068C150.45 107.06 150.648 106.178 151.044 105.422C151.452 104.654 152.01 104.066 152.718 103.658C153.438 103.238 154.248 103.028 155.148 103.028C156.084 103.028 156.888 103.244 157.56 103.676C158.244 104.108 158.736 104.66 159.036 105.332V103.172H160.296V113H159.036V110.822C158.724 111.494 158.226 112.052 157.542 112.496C156.87 112.928 156.066 113.144 155.13 113.144C154.242 113.144 153.438 112.934 152.718 112.514C152.01 112.094 151.452 111.5 151.044 110.732C150.648 109.964 150.45 109.076 150.45 108.068ZM159.036 108.086C159.036 107.294 158.874 106.598 158.55 105.998C158.226 105.398 157.782 104.936 157.218 104.612C156.666 104.288 156.054 104.126 155.382 104.126C154.686 104.126 154.062 104.282 153.51 104.594C152.958 104.906 152.52 105.362 152.196 105.962C151.884 106.55 151.728 107.252 151.728 108.068C151.728 108.872 151.884 109.58 152.196 110.192C152.52 110.792 152.958 111.254 153.51 111.578C154.062 111.89 154.686 112.046 155.382 112.046C156.054 112.046 156.666 111.884 157.218 111.56C157.782 111.236 158.226 110.774 158.55 110.174C158.874 109.574 159.036 108.878 159.036 108.086ZM166.556 113.144C165.428 113.144 164.504 112.886 163.784 112.37C163.076 111.842 162.68 111.128 162.596 110.228H163.892C163.952 110.78 164.21 111.23 164.666 111.578C165.134 111.914 165.758 112.082 166.538 112.082C167.222 112.082 167.756 111.92 168.14 111.596C168.536 111.272 168.734 110.87 168.734 110.39C168.734 110.054 168.626 109.778 168.41 109.562C168.194 109.346 167.918 109.178 167.582 109.058C167.258 108.926 166.814 108.788 166.25 108.644C165.518 108.452 164.924 108.26 164.468 108.068C164.012 107.876 163.622 107.594 163.298 107.222C162.986 106.838 162.83 106.328 162.83 105.692C162.83 105.212 162.974 104.768 163.262 104.36C163.55 103.952 163.958 103.628 164.486 103.388C165.014 103.148 165.614 103.028 166.286 103.028C167.342 103.028 168.194 103.298 168.842 103.838C169.49 104.366 169.838 105.098 169.886 106.034H168.626C168.59 105.458 168.362 104.996 167.942 104.648C167.534 104.288 166.97 104.108 166.25 104.108C165.614 104.108 165.098 104.258 164.702 104.558C164.306 104.858 164.108 105.23 164.108 105.674C164.108 106.058 164.222 106.376 164.45 106.628C164.69 106.868 164.984 107.06 165.332 107.204C165.68 107.336 166.148 107.486 166.736 107.654C167.444 107.846 168.008 108.032 168.428 108.212C168.848 108.392 169.208 108.656 169.508 109.004C169.808 109.352 169.964 109.814 169.976 110.39C169.976 110.918 169.832 111.392 169.544 111.812C169.256 112.22 168.854 112.544 168.338 112.784C167.822 113.024 167.228 113.144 166.556 113.144ZM178.548 100.418V113H177.288V100.418H178.548ZM190.462 103.028C191.386 103.028 192.19 103.244 192.874 103.676C193.558 104.108 194.05 104.654 194.35 105.314V103.172H195.61V113.252C195.61 114.152 195.412 114.95 195.016 115.646C194.632 116.342 194.092 116.876 193.396 117.248C192.7 117.632 191.908 117.824 191.02 117.824C189.76 117.824 188.71 117.524 187.87 116.924C187.042 116.324 186.526 115.508 186.322 114.476H187.564C187.78 115.16 188.188 115.706 188.788 116.114C189.4 116.522 190.144 116.726 191.02 116.726C191.656 116.726 192.226 116.588 192.73 116.312C193.234 116.048 193.63 115.652 193.918 115.124C194.206 114.596 194.35 113.972 194.35 113.252V110.822C194.038 111.494 193.54 112.052 192.856 112.496C192.184 112.928 191.386 113.144 190.462 113.144C189.562 113.144 188.752 112.934 188.032 112.514C187.324 112.094 186.766 111.5 186.358 110.732C185.962 109.964 185.764 109.076 185.764 108.068C185.764 107.06 185.962 106.178 186.358 105.422C186.766 104.654 187.324 104.066 188.032 103.658C188.752 103.238 189.562 103.028 190.462 103.028ZM194.35 108.086C194.35 107.294 194.188 106.598 193.864 105.998C193.54 105.398 193.096 104.936 192.532 104.612C191.98 104.288 191.368 104.126 190.696 104.126C190 104.126 189.376 104.282 188.824 104.594C188.272 104.906 187.834 105.362 187.51 105.962C187.198 106.55 187.042 107.252 187.042 108.068C187.042 108.872 187.198 109.58 187.51 110.192C187.834 110.792 188.272 111.254 188.824 111.578C189.376 111.89 190 112.046 190.696 112.046C191.368 112.046 191.98 111.884 192.532 111.56C193.096 111.236 193.54 110.774 193.864 110.174C194.188 109.574 194.35 108.878 194.35 108.086ZM207.379 107.582C207.379 108.014 207.367 108.344 207.343 108.572H199.189C199.225 109.316 199.405 109.952 199.729 110.48C200.053 111.008 200.479 111.41 201.007 111.686C201.535 111.95 202.111 112.082 202.735 112.082C203.551 112.082 204.235 111.884 204.787 111.488C205.351 111.092 205.723 110.558 205.903 109.886H207.235C206.995 110.846 206.479 111.632 205.687 112.244C204.907 112.844 203.923 113.144 202.735 113.144C201.811 113.144 200.983 112.94 200.251 112.532C199.519 112.112 198.943 111.524 198.523 110.768C198.115 110 197.911 109.106 197.911 108.086C197.911 107.066 198.115 106.172 198.523 105.404C198.931 104.636 199.501 104.048 200.233 103.64C200.965 103.232 201.799 103.028 202.735 103.028C203.671 103.028 204.487 103.232 205.183 103.64C205.891 104.048 206.431 104.6 206.803 105.296C207.187 105.98 207.379 106.742 207.379 107.582ZM206.101 107.546C206.113 106.814 205.963 106.19 205.651 105.674C205.351 105.158 204.937 104.768 204.409 104.504C203.881 104.24 203.305 104.108 202.681 104.108C201.745 104.108 200.947 104.408 200.287 105.008C199.627 105.608 199.261 106.454 199.189 107.546H206.101ZM211.322 104.234V110.336C211.322 110.936 211.436 111.35 211.664 111.578C211.892 111.806 212.294 111.92 212.87 111.92H214.022V113H212.672C211.784 113 211.124 112.796 210.692 112.388C210.26 111.968 210.044 111.284 210.044 110.336V104.234H208.676V103.172H210.044V100.706H211.322V103.172H214.022V104.234H211.322ZM221.67 101.318C221.418 101.318 221.202 101.228 221.022 101.048C220.842 100.868 220.752 100.646 220.752 100.382C220.752 100.118 220.842 99.902 221.022 99.734C221.202 99.554 221.418 99.464 221.67 99.464C221.922 99.464 222.138 99.554 222.318 99.734C222.498 99.902 222.588 100.118 222.588 100.382C222.588 100.646 222.498 100.868 222.318 101.048C222.138 101.228 221.922 101.318 221.67 101.318ZM222.3 103.172V113H221.04V103.172H222.3ZM226.791 104.234V110.336C226.791 110.936 226.905 111.35 227.133 111.578C227.361 111.806 227.763 111.92 228.339 111.92H229.491V113H228.141C227.253 113 226.593 112.796 226.161 112.388C225.729 111.968 225.513 111.284 225.513 110.336V104.234H224.145V103.172H225.513V100.706H226.791V103.172H229.491V104.234H226.791ZM237.768 104.918C238.044 104.306 238.464 103.832 239.028 103.496C239.604 103.16 240.306 102.992 241.134 102.992V104.306H240.792C239.88 104.306 239.148 104.552 238.596 105.044C238.044 105.536 237.768 106.358 237.768 107.51V113H236.508V103.172H237.768V104.918ZM251.922 107.582C251.922 108.014 251.91 108.344 251.886 108.572H243.732C243.768 109.316 243.948 109.952 244.272 110.48C244.596 111.008 245.022 111.41 245.55 111.686C246.078 111.95 246.654 112.082 247.278 112.082C248.094 112.082 248.778 111.884 249.33 111.488C249.894 111.092 250.266 110.558 250.446 109.886H251.778C251.538 110.846 251.022 111.632 250.23 112.244C249.45 112.844 248.466 113.144 247.278 113.144C246.354 113.144 245.526 112.94 244.794 112.532C244.062 112.112 243.486 111.524 243.066 110.768C242.658 110 242.454 109.106 242.454 108.086C242.454 107.066 242.658 106.172 243.066 105.404C243.474 104.636 244.044 104.048 244.776 103.64C245.508 103.232 246.342 103.028 247.278 103.028C248.214 103.028 249.03 103.232 249.726 103.64C250.434 104.048 250.974 104.6 251.346 105.296C251.73 105.98 251.922 106.742 251.922 107.582ZM250.644 107.546C250.656 106.814 250.506 106.19 250.194 105.674C249.894 105.158 249.48 104.768 248.952 104.504C248.424 104.24 247.848 104.108 247.224 104.108C246.288 104.108 245.49 104.408 244.83 105.008C244.17 105.608 243.804 106.454 243.732 107.546H250.644ZM253.651 108.068C253.651 107.06 253.849 106.178 254.245 105.422C254.653 104.654 255.211 104.066 255.919 103.658C256.639 103.238 257.449 103.028 258.349 103.028C259.285 103.028 260.089 103.244 260.761 103.676C261.445 104.108 261.937 104.66 262.237 105.332V103.172H263.497V113H262.237V110.822C261.925 111.494 261.427 112.052 260.743 112.496C260.071 112.928 259.267 113.144 258.331 113.144C257.443 113.144 256.639 112.934 255.919 112.514C255.211 112.094 254.653 111.5 254.245 110.732C253.849 109.964 253.651 109.076 253.651 108.068ZM262.237 108.086C262.237 107.294 262.075 106.598 261.751 105.998C261.427 105.398 260.983 104.936 260.419 104.612C259.867 104.288 259.255 104.126 258.583 104.126C257.887 104.126 257.263 104.282 256.711 104.594C256.159 104.906 255.721 105.362 255.397 105.962C255.085 106.55 254.929 107.252 254.929 108.068C254.929 108.872 255.085 109.58 255.397 110.192C255.721 110.792 256.159 111.254 256.711 111.578C257.263 111.89 257.887 112.046 258.583 112.046C259.255 112.046 259.867 111.884 260.419 111.56C260.983 111.236 261.427 110.774 261.751 110.174C262.075 109.574 262.237 108.878 262.237 108.086ZM265.798 108.068C265.798 107.06 266.002 106.178 266.41 105.422C266.818 104.654 267.376 104.066 268.084 103.658C268.804 103.238 269.614 103.028 270.514 103.028C271.378 103.028 272.158 103.238 272.854 103.658C273.55 104.078 274.06 104.624 274.384 105.296V99.68H275.644V113H274.384V110.804C274.084 111.488 273.592 112.052 272.908 112.496C272.224 112.928 271.42 113.144 270.496 113.144C269.596 113.144 268.786 112.934 268.066 112.514C267.358 112.094 266.8 111.5 266.392 110.732C265.996 109.964 265.798 109.076 265.798 108.068ZM274.384 108.086C274.384 107.294 274.222 106.598 273.898 105.998C273.574 105.398 273.13 104.936 272.566 104.612C272.014 104.288 271.402 104.126 270.73 104.126C270.034 104.126 269.41 104.282 268.858 104.594C268.306 104.906 267.868 105.362 267.544 105.962C267.232 106.55 267.076 107.252 267.076 108.068C267.076 108.872 267.232 109.58 267.544 110.192C267.868 110.792 268.306 111.254 268.858 111.578C269.41 111.89 270.034 112.046 270.73 112.046C271.402 112.046 272.014 111.884 272.566 111.56C273.13 111.236 273.574 110.774 273.898 110.174C274.222 109.574 274.384 108.878 274.384 108.086ZM286.62 103.172L280.788 117.626H279.474L281.382 112.946L277.35 103.172H278.736L282.084 111.56L285.324 103.172H286.62ZM297.138 104.234H294.852V113H293.592V104.234H292.224V103.172H293.592V102.488C293.592 101.42 293.862 100.634 294.402 100.13C294.954 99.626 295.842 99.374 297.066 99.374V100.454C296.25 100.454 295.674 100.61 295.338 100.922C295.014 101.234 294.852 101.756 294.852 102.488V103.172H297.138V104.234ZM303.424 113.144C302.5 113.144 301.666 112.94 300.922 112.532C300.19 112.112 299.608 111.524 299.176 110.768C298.756 110 298.546 109.106 298.546 108.086C298.546 107.066 298.762 106.178 299.194 105.422C299.626 104.654 300.214 104.066 300.958 103.658C301.702 103.238 302.536 103.028 303.46 103.028C304.384 103.028 305.218 103.238 305.962 103.658C306.718 104.066 307.306 104.654 307.726 105.422C308.158 106.178 308.374 107.066 308.374 108.086C308.374 109.094 308.158 109.982 307.726 110.75C307.294 111.518 306.7 112.112 305.944 112.532C305.188 112.94 304.348 113.144 303.424 113.144ZM303.424 112.046C304.072 112.046 304.672 111.902 305.224 111.614C305.776 111.314 306.22 110.87 306.556 110.282C306.904 109.682 307.078 108.95 307.078 108.086C307.078 107.222 306.91 106.496 306.574 105.908C306.238 105.308 305.794 104.864 305.242 104.576C304.69 104.276 304.09 104.126 303.442 104.126C302.794 104.126 302.194 104.276 301.642 104.576C301.09 104.864 300.646 105.308 300.31 105.908C299.986 106.496 299.824 107.222 299.824 108.086C299.824 108.95 299.986 109.682 300.31 110.282C300.646 110.87 301.084 111.314 301.624 111.614C302.176 111.902 302.776 112.046 303.424 112.046ZM311.93 104.918C312.206 104.306 312.626 103.832 313.19 103.496C313.766 103.16 314.468 102.992 315.296 102.992V104.306H314.954C314.042 104.306 313.31 104.552 312.758 105.044C312.206 105.536 311.93 106.358 311.93 107.51V113H310.67V103.172H311.93V104.918ZM323.391 104.918C323.667 104.306 324.087 103.832 324.651 103.496C325.227 103.16 325.929 102.992 326.757 102.992V104.306H326.415C325.503 104.306 324.771 104.552 324.219 105.044C323.667 105.536 323.391 106.358 323.391 107.51V113H322.131V103.172H323.391V104.918ZM337.545 107.582C337.545 108.014 337.533 108.344 337.509 108.572H329.355C329.391 109.316 329.571 109.952 329.895 110.48C330.219 111.008 330.645 111.41 331.173 111.686C331.701 111.95 332.277 112.082 332.901 112.082C333.717 112.082 334.401 111.884 334.953 111.488C335.517 111.092 335.889 110.558 336.069 109.886H337.401C337.161 110.846 336.645 111.632 335.853 112.244C335.073 112.844 334.089 113.144 332.901 113.144C331.977 113.144 331.149 112.94 330.417 112.532C329.685 112.112 329.109 111.524 328.689 110.768C328.281 110 328.077 109.106 328.077 108.086C328.077 107.066 328.281 106.172 328.689 105.404C329.097 104.636 329.667 104.048 330.399 103.64C331.131 103.232 331.965 103.028 332.901 103.028C333.837 103.028 334.653 103.232 335.349 103.64C336.057 104.048 336.597 104.6 336.969 105.296C337.353 105.98 337.545 106.742 337.545 107.582ZM336.267 107.546C336.279 106.814 336.129 106.19 335.817 105.674C335.517 105.158 335.103 104.768 334.575 104.504C334.047 104.24 333.471 104.108 332.847 104.108C331.911 104.108 331.113 104.408 330.453 105.008C329.793 105.608 329.427 106.454 329.355 107.546H336.267ZM341.11 99.68V113H339.85V99.68H341.11ZM352.855 107.582C352.855 108.014 352.843 108.344 352.819 108.572H344.665C344.701 109.316 344.881 109.952 345.205 110.48C345.529 111.008 345.955 111.41 346.483 111.686C347.011 111.95 347.587 112.082 348.211 112.082C349.027 112.082 349.711 111.884 350.263 111.488C350.827 111.092 351.199 110.558 351.379 109.886H352.711C352.471 110.846 351.955 111.632 351.163 112.244C350.383 112.844 349.399 113.144 348.211 113.144C347.287 113.144 346.459 112.94 345.727 112.532C344.995 112.112 344.419 111.524 343.999 110.768C343.591 110 343.387 109.106 343.387 108.086C343.387 107.066 343.591 106.172 343.999 105.404C344.407 104.636 344.977 104.048 345.709 103.64C346.441 103.232 347.275 103.028 348.211 103.028C349.147 103.028 349.963 103.232 350.659 103.64C351.367 104.048 351.907 104.6 352.279 105.296C352.663 105.98 352.855 106.742 352.855 107.582ZM351.577 107.546C351.589 106.814 351.439 106.19 351.127 105.674C350.827 105.158 350.413 104.768 349.885 104.504C349.357 104.24 348.781 104.108 348.157 104.108C347.221 104.108 346.423 104.408 345.763 105.008C345.103 105.608 344.737 106.454 344.665 107.546H351.577ZM354.585 108.068C354.585 107.06 354.783 106.178 355.179 105.422C355.587 104.654 356.145 104.066 356.853 103.658C357.573 103.238 358.383 103.028 359.283 103.028C360.219 103.028 361.023 103.244 361.695 103.676C362.379 104.108 362.871 104.66 363.171 105.332V103.172H364.431V113H363.171V110.822C362.859 111.494 362.361 112.052 361.677 112.496C361.005 112.928 360.201 113.144 359.265 113.144C358.377 113.144 357.573 112.934 356.853 112.514C356.145 112.094 355.587 111.5 355.179 110.732C354.783 109.964 354.585 109.076 354.585 108.068ZM363.171 108.086C363.171 107.294 363.009 106.598 362.685 105.998C362.361 105.398 361.917 104.936 361.353 104.612C360.801 104.288 360.189 104.126 359.517 104.126C358.821 104.126 358.197 104.282 357.645 104.594C357.093 104.906 356.655 105.362 356.331 105.962C356.019 106.55 355.863 107.252 355.863 108.068C355.863 108.872 356.019 109.58 356.331 110.192C356.655 110.792 357.093 111.254 357.645 111.578C358.197 111.89 358.821 112.046 359.517 112.046C360.189 112.046 360.801 111.884 361.353 111.56C361.917 111.236 362.361 110.774 362.685 110.174C363.009 109.574 363.171 108.878 363.171 108.086ZM370.691 113.144C369.563 113.144 368.639 112.886 367.919 112.37C367.211 111.842 366.815 111.128 366.731 110.228H368.027C368.087 110.78 368.345 111.23 368.801 111.578C369.269 111.914 369.893 112.082 370.673 112.082C371.357 112.082 371.891 111.92 372.275 111.596C372.671 111.272 372.869 110.87 372.869 110.39C372.869 110.054 372.761 109.778 372.545 109.562C372.329 109.346 372.053 109.178 371.717 109.058C371.393 108.926 370.949 108.788 370.385 108.644C369.653 108.452 369.059 108.26 368.603 108.068C368.147 107.876 367.757 107.594 367.433 107.222C367.121 106.838 366.965 106.328 366.965 105.692C366.965 105.212 367.109 104.768 367.397 104.36C367.685 103.952 368.093 103.628 368.621 103.388C369.149 103.148 369.749 103.028 370.421 103.028C371.477 103.028 372.329 103.298 372.977 103.838C373.625 104.366 373.973 105.098 374.021 106.034H372.761C372.725 105.458 372.497 104.996 372.077 104.648C371.669 104.288 371.105 104.108 370.385 104.108C369.749 104.108 369.233 104.258 368.837 104.558C368.441 104.858 368.243 105.23 368.243 105.674C368.243 106.058 368.357 106.376 368.585 106.628C368.825 106.868 369.119 107.06 369.467 107.204C369.815 107.336 370.283 107.486 370.871 107.654C371.579 107.846 372.143 108.032 372.563 108.212C372.983 108.392 373.343 108.656 373.643 109.004C373.943 109.352 374.099 109.814 374.111 110.39C374.111 110.918 373.967 111.392 373.679 111.812C373.391 112.22 372.989 112.544 372.473 112.784C371.957 113.024 371.363 113.144 370.691 113.144ZM385.375 107.582C385.375 108.014 385.363 108.344 385.339 108.572H377.185C377.221 109.316 377.401 109.952 377.725 110.48C378.049 111.008 378.475 111.41 379.003 111.686C379.531 111.95 380.107 112.082 380.731 112.082C381.547 112.082 382.231 111.884 382.783 111.488C383.347 111.092 383.719 110.558 383.899 109.886H385.231C384.991 110.846 384.475 111.632 383.683 112.244C382.903 112.844 381.919 113.144 380.731 113.144C379.807 113.144 378.979 112.94 378.247 112.532C377.515 112.112 376.939 111.524 376.519 110.768C376.111 110 375.907 109.106 375.907 108.086C375.907 107.066 376.111 106.172 376.519 105.404C376.927 104.636 377.497 104.048 378.229 103.64C378.961 103.232 379.795 103.028 380.731 103.028C381.667 103.028 382.483 103.232 383.179 103.64C383.887 104.048 384.427 104.6 384.799 105.296C385.183 105.98 385.375 106.742 385.375 107.582ZM384.097 107.546C384.109 106.814 383.959 106.19 383.647 105.674C383.347 105.158 382.933 104.768 382.405 104.504C381.877 104.24 381.301 104.108 380.677 104.108C379.741 104.108 378.943 104.408 378.283 105.008C377.623 105.608 377.257 106.454 377.185 107.546H384.097ZM387.896 113.09C387.632 113.09 387.41 113 387.23 112.82C387.062 112.64 386.978 112.418 386.978 112.154C386.978 111.89 387.062 111.674 387.23 111.506C387.41 111.326 387.632 111.236 387.896 111.236C388.148 111.236 388.358 111.326 388.526 111.506C388.706 111.674 388.796 111.89 388.796 112.154C388.796 112.418 388.706 112.64 388.526 112.82C388.358 113 388.148 113.09 387.896 113.09Z" fill="black"/>
<circle cx="255.5" cy="57.5" r="0.5" fill="#D9D9D9"/>
<path d="M407.28 137.2L407.16 137.908H402.492L402.612 137.2H407.28ZM418.231 133.72L416.767 142H415.927L417.091 135.4L412.987 142H412.375L410.575 135.412L409.423 142H408.583L410.047 133.72H410.935L412.891 140.896L417.343 133.72H418.231ZM418.876 138.712C418.996 138.04 419.236 137.452 419.596 136.948C419.956 136.436 420.396 136.044 420.916 135.772C421.444 135.492 422.008 135.352 422.608 135.352C423.232 135.352 423.744 135.496 424.144 135.784C424.544 136.072 424.804 136.44 424.924 136.888L425.176 135.448H426.016L424.864 142H424.024L424.276 140.548C424.004 140.996 423.612 141.368 423.1 141.664C422.596 141.952 422.032 142.096 421.408 142.096C420.888 142.096 420.432 141.988 420.04 141.772C419.648 141.556 419.344 141.252 419.128 140.86C418.912 140.46 418.804 139.992 418.804 139.456C418.804 139.224 418.828 138.976 418.876 138.712ZM424.6 138.724C424.64 138.5 424.66 138.3 424.66 138.124C424.66 137.5 424.472 137.004 424.096 136.636C423.72 136.268 423.232 136.084 422.632 136.084C422.168 136.084 421.732 136.188 421.324 136.396C420.924 136.604 420.584 136.908 420.304 137.308C420.024 137.7 419.836 138.168 419.74 138.712C419.7 138.952 419.68 139.156 419.68 139.324C419.68 139.956 419.864 140.456 420.232 140.824C420.608 141.184 421.096 141.364 421.696 141.364C422.144 141.364 422.572 141.256 422.98 141.04C423.396 140.824 423.744 140.516 424.024 140.116C424.312 139.716 424.504 139.252 424.6 138.724ZM430.706 135.352C431.322 135.352 431.83 135.496 432.23 135.784C432.638 136.072 432.902 136.436 433.022 136.876L433.274 135.448H434.114L432.938 142.168C432.834 142.768 432.61 143.3 432.266 143.764C431.93 144.228 431.506 144.584 430.994 144.832C430.482 145.088 429.93 145.216 429.338 145.216C428.498 145.216 427.834 145.016 427.346 144.616C426.866 144.216 426.618 143.672 426.602 142.984H427.43C427.494 143.44 427.702 143.804 428.054 144.076C428.406 144.348 428.878 144.484 429.47 144.484C430.118 144.484 430.686 144.276 431.174 143.86C431.662 143.452 431.97 142.888 432.098 142.168L432.374 140.548C432.102 140.996 431.71 141.368 431.198 141.664C430.694 141.952 430.134 142.096 429.518 142.096C428.726 142.096 428.09 141.86 427.61 141.388C427.138 140.908 426.902 140.264 426.902 139.456C426.902 139.224 426.926 138.976 426.974 138.712C427.094 138.04 427.334 137.452 427.694 136.948C428.054 136.436 428.494 136.044 429.014 135.772C429.542 135.492 430.106 135.352 430.706 135.352ZM432.698 138.724C432.738 138.5 432.758 138.3 432.758 138.124C432.758 137.5 432.57 137.004 432.194 136.636C431.818 136.268 431.33 136.084 430.73 136.084C430.266 136.084 429.83 136.188 429.422 136.396C429.022 136.604 428.682 136.908 428.402 137.308C428.122 137.7 427.934 138.168 427.838 138.712C427.798 138.952 427.778 139.156 427.778 139.324C427.778 139.956 427.962 140.456 428.33 140.824C428.706 141.184 429.194 141.364 429.794 141.364C430.242 141.364 430.67 141.256 431.078 141.04C431.494 140.824 431.842 140.516 432.122 140.116C432.41 139.716 432.602 139.252 432.698 138.724ZM441.708 135.448L440.556 142H439.716L439.92 140.848C439.648 141.256 439.296 141.568 438.864 141.784C438.432 142 437.968 142.108 437.472 142.108C436.8 142.108 436.26 141.928 435.852 141.568C435.444 141.2 435.24 140.668 435.24 139.972C435.24 139.716 435.26 139.484 435.3 139.276L435.972 135.448H436.8L436.14 139.18C436.108 139.364 436.092 139.556 436.092 139.756C436.092 140.284 436.236 140.688 436.524 140.968C436.82 141.24 437.228 141.376 437.748 141.376C438.356 141.376 438.88 141.192 439.32 140.824C439.76 140.448 440.056 139.9 440.208 139.18L440.868 135.448H441.708ZM442.665 138.712C442.785 138.04 443.025 137.452 443.385 136.948C443.745 136.436 444.189 136.044 444.717 135.772C445.245 135.492 445.809 135.352 446.409 135.352C446.985 135.352 447.477 135.492 447.885 135.772C448.301 136.052 448.581 136.416 448.725 136.864L449.385 133.12H450.225L448.653 142H447.813L448.077 140.536C447.789 140.992 447.393 141.368 446.889 141.664C446.385 141.952 445.825 142.096 445.209 142.096C444.417 142.096 443.781 141.86 443.301 141.388C442.829 140.908 442.593 140.264 442.593 139.456C442.593 139.224 442.617 138.976 442.665 138.712ZM448.389 138.724C448.429 138.5 448.449 138.3 448.449 138.124C448.449 137.5 448.261 137.004 447.885 136.636C447.509 136.268 447.021 136.084 446.421 136.084C445.957 136.084 445.521 136.188 445.113 136.396C444.713 136.604 444.373 136.908 444.093 137.308C443.813 137.7 443.625 138.168 443.529 138.712C443.489 138.952 443.469 139.156 443.469 139.324C443.469 139.956 443.653 140.456 444.021 140.824C444.397 141.184 444.885 141.364 445.485 141.364C445.933 141.364 446.361 141.256 446.769 141.04C447.185 140.824 447.533 140.516 447.813 140.116C448.101 139.716 448.293 139.252 448.389 138.724ZM454.579 135.352C455.131 135.352 455.603 135.46 455.995 135.676C456.387 135.884 456.683 136.172 456.883 136.54C457.091 136.908 457.195 137.328 457.195 137.8C457.195 138.016 457.179 138.208 457.147 138.376C457.099 138.616 457.051 138.832 457.003 139.024H451.567C451.543 139.176 451.531 139.32 451.531 139.456C451.531 140.072 451.715 140.548 452.083 140.884C452.459 141.22 452.935 141.388 453.511 141.388C454.063 141.388 454.547 141.256 454.963 140.992C455.379 140.728 455.683 140.372 455.875 139.924H456.775C456.503 140.564 456.067 141.088 455.467 141.496C454.875 141.896 454.183 142.096 453.391 142.096C452.575 142.096 451.919 141.864 451.423 141.4C450.935 140.928 450.691 140.288 450.691 139.48C450.691 139.24 450.715 138.988 450.763 138.724C450.883 138.044 451.123 137.448 451.483 136.936C451.851 136.424 452.303 136.032 452.839 135.76C453.375 135.488 453.955 135.352 454.579 135.352ZM456.283 138.4C456.323 138.176 456.343 137.988 456.343 137.836C456.343 137.268 456.163 136.832 455.803 136.528C455.443 136.224 454.983 136.072 454.423 136.072C454.015 136.072 453.623 136.16 453.247 136.336C452.871 136.512 452.543 136.776 452.263 137.128C451.983 137.48 451.791 137.904 451.687 138.4H456.283ZM460.22 142.096C459.556 142.096 459.016 141.944 458.6 141.64C458.184 141.328 457.976 140.904 457.976 140.368C457.976 140.272 457.98 140.2 457.988 140.152H458.804C458.772 140.536 458.884 140.844 459.14 141.076C459.396 141.308 459.772 141.424 460.268 141.424C460.772 141.424 461.176 141.32 461.48 141.112C461.784 140.896 461.936 140.612 461.936 140.26C461.936 140.052 461.872 139.876 461.744 139.732C461.616 139.588 461.456 139.472 461.264 139.384C461.08 139.288 460.82 139.18 460.484 139.06C460.068 138.908 459.732 138.768 459.476 138.64C459.228 138.504 459.012 138.32 458.828 138.088C458.652 137.848 458.564 137.548 458.564 137.188C458.564 136.828 458.668 136.508 458.876 136.228C459.084 135.948 459.368 135.732 459.728 135.58C460.096 135.428 460.512 135.352 460.976 135.352C461.624 135.352 462.152 135.512 462.56 135.832C462.976 136.152 463.184 136.576 463.184 137.104C463.184 137.216 463.18 137.3 463.172 137.356H462.38C462.388 137.324 462.392 137.272 462.392 137.2C462.392 136.848 462.252 136.564 461.972 136.348C461.7 136.132 461.348 136.024 460.916 136.024C460.484 136.024 460.124 136.128 459.836 136.336C459.556 136.536 459.416 136.808 459.416 137.152C459.416 137.384 459.484 137.58 459.62 137.74C459.756 137.892 459.924 138.016 460.124 138.112C460.324 138.208 460.592 138.32 460.928 138.448C461.328 138.6 461.648 138.74 461.888 138.868C462.136 138.996 462.344 139.172 462.512 139.396C462.68 139.62 462.764 139.9 462.764 140.236C462.764 140.804 462.528 141.256 462.056 141.592C461.584 141.928 460.972 142.096 460.22 142.096ZM468.449 135.328C469.105 135.328 469.633 135.508 470.033 135.868C470.433 136.228 470.633 136.76 470.633 137.464C470.633 137.72 470.613 137.952 470.573 138.16L469.889 142H469.061L469.721 138.256C469.753 138.072 469.769 137.876 469.769 137.668C469.769 137.14 469.625 136.74 469.337 136.468C469.049 136.196 468.645 136.06 468.125 136.06C467.493 136.06 466.953 136.26 466.505 136.66C466.057 137.06 465.765 137.648 465.629 138.424V138.412L464.993 142H464.153L465.725 133.12H466.565L465.953 136.564C466.233 136.164 466.593 135.86 467.033 135.652C467.473 135.436 467.945 135.328 468.449 135.328ZM477.65 137.8L480.866 142H479.762L476.81 138.124L476.126 142H475.286L476.762 133.612H477.602L476.906 137.548L481.25 133.612H482.318L477.65 137.8Z" fill="black" fill-opacity="0.52"/>
<defs>
<filter id="filter0_d_431_528" x="0" y="0" width="638" height="199" filterUnits="userSpaceOnUse" color-interpolation-filters="sRGB">
<feFlood flood-opacity="0" result="BackgroundImageFix"/>
<feColorMatrix in="SourceAlpha" type="matrix" values="0 0 0 0 0 0 0 0 0 0 0 0 0 0 0 0 0 0 127 0" result="hardAlpha"/>
<feOffset dx="7" dy="7"/>
<feGaussianBlur stdDeviation="12"/>
<feComposite in2="hardAlpha" operator="out"/>
<feColorMatrix type="matrix" values="0 0 0 0 0 0 0 0 0 0 0 0 0 0 0 0 0 0 0.05 0"/>
<feBlend mode="normal" in2="BackgroundImageFix" result="effect1_dropShadow_431_528"/>
<feBlend mode="normal" in="SourceGraphic" in2="effect1_dropShadow_431_528" result="shape"/>
</filter>
</defs>
</svg>
