<svg width="510" height="510" viewBox="0 0 510 510" fill="none" xmlns="http://www.w3.org/2000/svg">
<path d="M6.31928 304.567L1 272.454L1.98769 241.469L4.42861 209.948L13.1483 180.149L29.6 152.057L38.2633 125.206L53.1912 99.9926L74.2285 80.4508L101.403 65.9462L116.797 48.7467L145.99 43.639L179.288 45.1488L215.677 53.4452L253.928 68.4154L281.215 97.6504L308.024 132.473L333.322 171.655L356.137 213.758L375.608 257.173L391.002 300.263L401.781 341.407L407.665 379.136L408.554 412.18L404.575 439.525L396.025 460.449L383.369 474.516M267.896 1.09877L264.905 6.07944L261.504 19.0602L257.808 39.9706L253.914 68.3872M253.914 68.3872H300.574L301.971 68.5706L345.484 74.412L387.065 86.1652L423.891 103.139L454.805 124.628L456.611 149.136L452.223 173.701L476.477 205.306L493.352 237.956L502.467 270.521L503.751 301.942L497.416 331.248L484.858 362.049L464.837 391.03L437.817 417.147L404.561 439.454L366.098 457.091L323.713 469.352L278.873 475.744L233.172 475.998L188.248 470.1L145.707 458.304L107.033 441.091L73.5089 419.136L46.1929 393.288L25.8469 364.504L19.4835 335.777L20.4006 303.875L28.7958 269.759L44.5985 234.541L67.4418 199.451L96.6203 165.771L131.175 134.744L169.877 107.527L211.303 85.1352L253.914 68.3731L299.05 62.9409L342.324 63.731L382.254 70.6024L417.514 83.1881L423.905 103.139L425.203 123.711L421.281 144.282L412.138 164.205L397.958 182.83M253.914 68.3872L207.183 74.3978L162.089 86.264L120.24 103.492L83.1034 125.404L51.9072 151.154L27.6106 179.768L10.8485 210.216L1.94536 241.441L7.25052 273.088L6.27695 304.539L19.4553 335.763L40.3092 365.054L68.3307 391.383L102.744 413.746L142.476 431.299L186.188 443.32L232.368 449.331L279.353 449.077L325.449 442.558L369.005 430.057L408.512 412.082L442.657 389.351L470.368 362.74L490.883 333.237L503.723 301.886L508.704 269.744L507.405 238.788L498.206 207.677L481.162 177.426L456.597 149.066L425.175 123.64L387.855 102.109L345.865 85.3045L300.673 73.8899L253.885 68.3166L208.523 79.83L164.586 97.0578L123.668 119.351L87.2375 145.877L56.5493 175.634L32.5913 207.507L16.0408 240.354L7.25052 273.032L20.3865 303.805L41.1417 332.673L69.0362 358.606L103.294 380.645L142.843 397.93L186.357 409.782L232.312 415.694L279.071 415.44L324.955 409.02L368.314 396.702L407.637 378.995L441.627 356.603L469.225 330.387L489.656 301.322L502.453 270.436L507.42 238.76L504.654 207.296L495.638 177.609L485.888 148.628L470.382 123.33L469.564 121.707L469.451 121.524L454.791 97.8902L433.951 75.2162L415.073 58.3976L392.074 40.8171L377.301 32.7888L365.294 26.2702L348.659 20.062L348.306 19.9068L335.523 15.1095L323.318 10.5804L296.157 4.17465L267.854 1L239.183 1.1411L210.908 4.58382L183.803 11.2576L171.627 15.9138L158.914 20.8239L158.547 20.9932L141.968 27.3707L130.018 34.0163L115.33 42.1858L92.5004 59.992L73.7629 77.0081L53.1348 99.8938L38.7007 123.697L38.616 123.838L37.7977 125.503L22.5453 150.956L13.0919 180.05L10.8202 210.146L16.0267 240.34L28.7676 269.674L48.8313 297.173L75.7524 321.865L108.769 342.832L146.85 359.27L188.727 370.529L232.947 376.159L277.942 375.919L322.091 369.824M6.3052 304.567L12.9508 333.83L19.1308 348.532L25.861 364.532L39.0534 389.266L48.013 401.951L58.3553 416.597L76.1898 433.994L84.1898 441.133L99.7809 456.865L119.012 469.536L128.621 475.871L155.429 487.906L161.792 490.771L198.209 500.958L236.629 506.037L275.699 505.825L314.048 500.309L350.338 489.726L383.34 474.474L392.892 468.026L411.969 455.144L427.39 439.257L437.803 417.175L442.671 389.408L441.627 356.702L434.53 320.059L421.464 280.708L402.783 240.03L379.093 199.535L351.255 160.734L320.313 125.108L287.452 93.9678L253.899 68.3872L220.897 49.1982L189.602 36.9229L179.274 45.1347L171.133 54.4611L165.433 64.6199L162.371 75.3432L120.889 87.5056L84.204 104.846L53.4734 126.645L29.5859 152.057L27.6247 179.796L32.6195 207.592L44.6126 234.569L63.3783 259.811L88.4791 282.457L119.196 301.66L154.568 316.701L193.426 327.001L234.428 332.151L276.136 331.925L317.082 326.352L355.813 315.643L391.002 300.235L421.478 280.722L446.311 257.836L464.795 232.411L476.477 205.334L481.176 177.51L478.932 149.813L454.819 124.656L447.031 100.938L417.514 83.2163L406.325 64.4647L373.647 55.9708L361.555 42.5949L328.299 44.4292L292.023 53.0783L253.942 68.4154L220.657 94.3205L188.107 125.799L157.517 161.75L130.06 200.833L106.779 241.596L88.4933 282.485L75.8088 321.992L69.0785 358.719L68.3731 391.453L73.5372 419.179L84.1898 441.147L115.823 461.959L152.282 478.269L192.339 489.444L234.626 495.017L277.646 494.778L319.861 488.725L359.777 477.112L396.025 460.407L427.404 439.257L435.32 432.032L452.957 414.466L464.837 391.058L470.41 362.811L469.253 330.5L461.197 295.113L446.325 257.822L425.02 219.938L397.958 182.83M397.958 182.83L366.084 147.894M397.958 182.83L379.122 199.535L356.165 213.73L329.795 224.904L300.87 232.65L270.351 236.686L239.282 236.841L208.721 233.13L179.697 225.68L153.2 214.774L130.074 200.805L111.04 184.283L96.6486 165.799L87.2798 145.961L83.1316 125.432L84.2181 104.846L90.398 84.8248L125.559 71.8863L165.447 64.6199L208.735 63.4065L253.928 68.3872L296.172 57.7909L336.539 53.6427L373.661 55.9426L382.268 70.6165L387.079 86.1793L387.898 102.18L384.624 118.123L377.301 133.531L366.084 147.894M366.084 147.894L330.557 116.444L292.701 89.622L253.942 68.3872L211.585 58.2001L171.161 54.4469L134.039 57.1137L125.573 71.8863L120.917 87.5056L120.268 103.52L123.711 119.436L131.203 134.773L142.575 149.023L157.517 161.722L175.591 172.431L196.234 180.784L218.781 186.484L242.499 189.32L266.612 189.193L290.302 186.117L312.793 180.191L333.336 171.627L351.283 160.734L366.084 147.894ZM322.091 369.824L363.827 358.113L401.711 341.28L434.473 319.974L461.112 295.015L480.865 267.332L493.282 237.885L498.164 207.662L495.582 177.609L478.862 149.7L469.931 122.949L454.749 97.9043L433.542 78.5884L415.03 58.4117L390.677 47.3075L371.248 32.422L348.56 20.0761L323.276 10.5945L308.574 13.5575L291.755 24.2525L273.314 42.6232L253.829 68.3025L233.977 100.613L214.491 138.526M322.091 369.824L324.899 409.02L325.392 442.516L323.629 469.282L319.749 488.626L313.964 500.21L306.542 503.977M322.091 369.824L317.011 326.253L309.815 279.917L300.771 232.566L290.217 186.033L278.577 142.095L266.302 102.391L253.857 68.3025L241.709 40.9159L230.266 20.965L219.895 8.8308L210.894 4.61204M214.491 138.526L196.121 180.713L179.584 225.61L165.517 271.508L154.469 316.645L146.808 359.312L142.773 397.958L142.406 431.285L145.609 458.262L152.156 478.199L161.694 490.7L173.799 495.681L187.302 499.462L199.07 502.75L205.574 504.57L216.989 506.079L239.056 509L273.102 508.817L275.12 508.52L295.128 505.642L306.528 504.005L313.018 502.115L324.729 498.7L338.19 494.778L350.239 489.67L359.65 477.07L365.986 457.077L368.92 430.071L368.215 396.773L363.784 358.183L355.7 315.615L344.186 270.605L329.654 224.862L312.666 180.149L293.872 138.159L274.005 100.458L253.815 68.359L234.061 42.863L215.423 24.6758L198.491 14.1501L178.667 21.8257L160.96 31.7165L135.986 33.6072L116.698 48.6903L92.4439 60.0484L74.1297 80.4085L60.9373 102.8L53.3887 126.603L51.8508 151.14L56.5069 175.676L67.3713 199.437L84.2322 221.645L106.68 241.525L134.067 258.358L165.531 271.536L200.057 280.552L236.46 285.053L273.469 284.856L309.815 279.974L344.229 270.605L375.538 257.116L402.727 240.002L424.949 219.91L441.57 197.546L452.167 173.687M214.491 138.526L229.871 142.349L246.026 144.254L262.436 144.17L278.563 142.11L293.9 138.131L307.939 132.374L320.257 125.037L330.458 116.36L338.246 106.638L343.41 96.1689L345.809 85.2904L345.4 74.3414L342.239 63.6605L336.44 53.558L328.2 44.3163L317.787 36.2174L286.634 48.8031L253.843 68.3166M214.491 138.526L200.382 132.91L187.994 125.7L177.694 117.122L169.792 107.471L164.515 97.0578L162.004 86.2075L162.286 75.2585M273.145 508.831L275.642 505.769L277.561 494.721L278.803 475.716L279.311 449.077L279.028 415.482L277.942 375.975L276.08 331.883L273.483 284.842L270.266 236.643L266.542 189.151L262.45 144.198L258.175 103.449L253.857 68.3307L227.077 45.6003L201.751 29.9951L178.696 21.8116L158.589 21.0356L136.014 33.593L115.301 42.214M485.846 148.67L470.34 123.372L446.96 100.867L433.556 78.6166L406.254 64.3801L390.691 47.3357L361.47 42.5103L346.289 30.7994L328.482 21.0779L305.526 29.4872L280.369 45.3322L253.843 68.3166M253.843 68.3166L226.851 97.8197L200.396 132.91L175.493 172.346L153.101 214.689L134.067 258.316L119.111 301.576L108.74 342.846L103.238 380.645L102.687 413.704L106.949 441.02L115.711 461.86L128.522 475.786M253.843 68.3166L249.892 103.463L246.04 144.24L242.428 189.235L239.197 236.756L236.474 284.997L234.372 332.066L232.961 376.173L232.284 415.694L232.34 449.288L233.116 475.913L234.555 494.905L236.587 505.924L239.113 508.958M296.143 4.20287L287.198 8.50628L276.954 20.7393L265.723 40.803L253.857 68.3166L241.765 102.518L229.899 142.349L218.71 186.399L208.636 233.046L200.072 280.496L193.355 326.916L188.727 370.543L186.315 409.782L186.159 443.278L188.191 470.029L192.269 489.331L198.167 500.845L205.617 504.527M292.63 89.5374L296.651 84.6555L299.346 79.3785L300.658 73.8758L300.546 68.3166L299.008 62.8703L296.115 57.7063L291.967 52.9655L286.676 48.789L280.411 45.304L273.356 42.609L265.737 40.7889L257.765 39.8859L249.681 39.9282L241.723 40.9159L234.118 42.8207L227.091 45.5862L220.869 49.1277L215.62 53.3464L211.514 58.1295L208.678 63.3219L207.197 68.7822L207.14 74.3414L208.509 79.83L211.26 85.0788L215.324 89.9183L220.587 94.2076L226.88 97.8056L234.019 100.599L241.779 102.504L249.92 103.449L258.189 103.407L266.316 102.377L274.048 100.402L281.159 97.5375L287.41 93.869L292.63 89.5233M253.871 68.2884L249.681 39.9141L245.758 19.0461L242.217 6.09355L239.169 1.15521M452.124 173.644L421.168 144.212L384.511 118.053L343.396 96.1689L299.29 79.3785L253.815 68.3025L207.14 68.7822L205.744 68.9798L162.272 75.2444M391.989 40.8454L371.22 32.422L346.246 30.7711L317.759 36.2033L305.498 29.4589L291.741 24.2525L276.898 20.7251L261.406 18.9756L245.702 19.0461L230.224 20.9368L215.423 24.6053L201.722 29.9387L189.518 36.81L160.946 31.6459L145.877 43.4979L133.912 57.0008L101.291 65.8192L90.2993 84.6978L60.9232 102.716L37.7413 125.488L22.4888 150.942M411.884 455.017L426.501 440.823L430.396 437.041L435.207 431.905L452.844 414.339L463.031 399.581L471.835 386.811L484.76 361.95L490.813 333.181L489.571 301.308L480.837 267.304L464.696 232.284L441.528 197.461L412.025 164.092L377.189 133.418L338.232 106.596L296.595 84.6132L253.815 68.2602L215.267 89.876L177.68 117.065L142.462 148.882L110.913 184.156L84.204 221.546L63.2654 259.67L48.7608 297.131L41.057 332.617L40.2245 364.956L46.08 393.161L58.2142 416.456L76.0486 433.853L80.9023 438.918L84.8671 442.685L99.6398 456.71M365.337 26.369L348.701 20.1608L328.553 21.1343L308.659 13.6422L287.24 8.57682L264.905 6.06533L242.259 6.1782L219.938 8.90134L198.562 14.1642L183.817 11.3423L158.561 21.0779L141.983 27.4554" stroke="#626262" stroke-width="1.08501" stroke-linecap="round" stroke-linejoin="round"/>
</svg>
